<?xml version="1.0" encoding="utf-8"?>
<!-- Uploaded to SVGRepo https://www.svgrepo.com -->
<svg version="1.1" id="Designer" xmlns="http://www.w3.org/2000/svg" xmlns:xlink="http://www.w3.org/1999/xlink" x="0px" y="0px"
	 width="300px" height="300px" viewBox="0 0 300 300" style="enable-background:new 0 0 300 300;" xml:space="preserve">
<path d="M175,38.3c21.4,0,38.8,17.4,38.8,38.8s-17.4,38.8-38.8,38.8s-38.8-17.4-38.8-38.8S153.6,38.3,175,38.3z M180.9,262.8
	l109.4,0.1c-7.9-37.6-31.9-110.4-45.4-131c-9.9-15.1-25.3-21.5-41.7-16.6c-9.5,2.8-15.9,8.4-21.4,17.1C177.9,138.7,169,159,169,159
	h-47c-2.6,0-5.1,0.5-7.3,1.5l5.7-11.8c1.4-3,0.2-6.6-2.8-8c-3-1.4-6.6-0.2-8,2.8l-19.8,40.8l-7.2-7.8c-1.5-1.6-3.5-2.5-5.7-2.5
	c0,0-60.1,0-60.3,0c-3.7,0-6.6,3-6.6,6.6c0,2.4,1.3,4,2.1,5c7.8,8.8,26.2,28.7,37.8,41.3c-7.4,2.3-13,8.9-13,17.1
	c0,11.2,8.7,18.9,19,18.9l113.9,0l36.5-76.3c1.2-2.5,4.2-3.6,6.7-2.4c2.5,1.2,3.6,4.2,2.4,6.7L180.9,262.8z M65.5,226l-36.7-40h45.1
	c0.7,0,1.4,0.3,1.8,0.8l8.4,9.2l-6.7,13.8c-1.4,3-0.2,6.6,2.8,8c3,1.4,6.6,0.2,8-2.8l4.6-9.4l18.9,20.5H65.5z M137,226h-9
	l-29.5-32.2l5.3-10.9c2.4,7.6,9.8,13.1,18.2,13.1h29L137,226z"/>
</svg>
